<svg xmlns="http://www.w3.org/2000/svg" aria-labelledby="svg-inline--fa-title-PNWQ2jNVc15w" class="has-vote svg-inline--fa fa-vote-yea fa-w-20" data-icon="vote-yea" data-prefix="fas" viewBox="0 0 640 512"><path fill="currentColor" d="M608 320h-64v64h22c6 0 10 4 10 8v16c0 4-4 8-10 8H74c-6 0-10-4-10-8v-16c0-4 4-8 10-8h22v-64H32c-18 0-32 14-32 32v96c0 18 14 32 32 32h576c18 0 32-14 32-32v-96c0-18-14-32-32-32zm-96 64V64c0-18-14-32-32-32H160c-17 0-32 15-32 32v320h384zM211 202l26-25c4-5 11-5 15 0l41 41 95-94c5-4 11-4 16 0l25 26c4 4 4 11 0 15L301 292c-5 4-11 4-16 0l-74-75c-4-4-4-11 0-15z"/></svg>